<svg id="Layer_1" data-name="Layer 1" xmlns="http://www.w3.org/2000/svg" viewBox="0 0 5.44 5.28"><defs><style>.cls-1{fill:#1f52a5;}.cls-2{fill:#fff;fill-rule:evenodd;}</style></defs><path class="cls-1" d="M5,2.64A2.1,2.1,0,1,1,2.92.54,2.1,2.1,0,0,1,5,2.64Z"/><path class="cls-2" d="M1.66,3.49a1,1,0,0,0,.57-.1.76.76,0,0,0,.23-.13.84.84,0,0,1-.24-.06A.52.52,0,0,1,2,2.9s0,0,0,0a.56.56,0,0,0,.2,0,.29.29,0,0,1-.13,0,.57.57,0,0,1-.3-.47s0,0,0,0A.79.79,0,0,0,2,2.39a.75.75,0,0,1-.09-.09.55.55,0,0,1-.09-.62s0,0,0,0a1.51,1.51,0,0,0,1,.54h.12s0,0,0,0a.54.54,0,0,1,.28-.57.56.56,0,0,1,.65.08s0,0,.06,0a1,1,0,0,0,.29-.11h0a.57.57,0,0,1-.23.3,1,1,0,0,0,.3-.08s0,0,0,0a1,1,0,0,1-.23.24.05.05,0,0,0,0,0A1.59,1.59,0,0,1,3.68,3.2a1.49,1.49,0,0,1-.92.51A1.55,1.55,0,0,1,1.67,3.5Z"/></svg>