<svg id="Layer_1" data-name="Layer 1" xmlns="http://www.w3.org/2000/svg" viewBox="0 0 5.44 5.28"><defs><style>.cls-1{fill:#1f52a5;}.cls-2{fill:#fff;}</style></defs><path class="cls-1" d="M5,2.64A2.08,2.08,0,0,1,3.11,4.72a.55.55,0,0,1-.18,0,2.31,2.31,0,0,1-.46,0A2.1,2.1,0,1,1,5,2.64Z"/><path class="cls-2" d="M3.17,2.2a.22.22,0,0,1,.18-.07,1.55,1.55,0,0,1,.29,0l.08-.44a1.81,1.81,0,0,0-.52-.07.89.89,0,0,0-.43.09A.53.53,0,0,0,2.54,2a1,1,0,0,0-.07.44v.18H2.13v.5h.34V4.69a2.31,2.31,0,0,0,.46,0,.55.55,0,0,0,.18,0V3.11h.45v-.5H3.11V2.44C3.11,2.32,3.12,2.24,3.17,2.2Z"/></svg>