<svg id="Layer_1" data-name="Layer 1" xmlns="http://www.w3.org/2000/svg" viewBox="0 0 5.44 5.28"><defs><style>.cls-1{fill:#1f52a5;}.cls-2{fill:#fff;}</style></defs><path class="cls-1" d="M4.81,2.64A2.08,2.08,0,0,1,2.9,4.72a.55.55,0,0,1-.18,0,2.14,2.14,0,0,1-.45,0A2.09,2.09,0,0,1,2.72.55,2.08,2.08,0,0,1,4.81,2.64Z"/><path class="cls-2" d="M2.72,1.72H3.78A.17.17,0,0,1,4,1.9V3.38a.17.17,0,0,1-.18.18H1.66a.17.17,0,0,1-.18-.18V1.9a.17.17,0,0,1,.18-.18Zm-1.11.14,0,0,1,.78a.21.21,0,0,0,.28,0l.94-.78,0,0s0,0,0,0H1.61Zm.12,1.57h2l-.81-.6h0a.34.34,0,0,1-.28,0h0l-.65.49ZM3,2.73l.85.63V2ZM1.61,2V3.36l.85-.63Z"/></svg>